<?xml version="1.0" standalone="no"?>
<!DOCTYPE svg PUBLIC "-//W3C//DTD SVG 20010904//EN"
 "http://www.w3.org/TR/2001/REC-SVG-20010904/DTD/svg10.dtd">
<svg version="1.0" xmlns="http://www.w3.org/2000/svg"
 width="512.000000pt" height="512.000000pt" viewBox="0 0 512.000000 512.000000"
 preserveAspectRatio="xMidYMid meet">
<metadata>
Created by potrace 1.16, written by Peter Selinger 2001-2019
</metadata>
<g transform="translate(0.000000,512.000000) scale(0.100000,-0.100000)"
fill="#000000" stroke="none">
<path d="M1832 3928 c-51 -29 -128 -79 -172 -112 -95 -70 -261 -239 -313 -319
-217 -329 -284 -818 -177 -1284 11 -48 23 -95 27 -103 3 -8 8 -23 10 -33 6
-34 46 -121 81 -177 33 -54 278 -311 316 -332 27 -15 -35 63 -79 99 -72 60
-174 235 -239 408 -88 237 -122 426 -112 625 10 187 15 220 56 390 70 286 164
442 385 641 137 123 189 164 272 214 90 54 49 41 -55 -17z"/>
<path d="M3010 3900 c8 -5 20 -10 25 -10 6 0 3 5 -5 10 -8 5 -19 10 -25 10 -5
0 -3 -5 5 -10z"/>
<path d="M3090 3865 c0 -2 18 -14 40 -25 22 -11 40 -18 40 -15 0 2 -18 14 -40
25 -22 11 -40 18 -40 15z"/>
<path d="M2360 3813 c-295 -28 -522 -133 -710 -329 -62 -65 -61 -64 20 12 47
44 113 99 145 121 76 51 183 105 195 98 4 -3 10 -1 12 5 1 5 20 12 40 14 20 3
61 12 90 21 29 9 121 23 203 31 223 23 399 7 580 -52 292 -97 540 -280 689
-511 103 -159 162 -304 186 -456 16 -99 8 -381 -15 -495 -49 -250 -158 -448
-352 -639 -111 -111 -114 -134 -7 -64 180 117 321 329 385 580 39 154 51 412
25 561 -21 121 -74 280 -128 384 -51 98 -166 252 -249 336 -80 79 -294 222
-410 271 -215 93 -471 134 -699 112z"/>
<path d="M3205 3803 c17 -17 167 -114 161 -104 -3 5 -36 29 -74 53 -79 52
-101 65 -87 51z"/>
<path d="M2416 3420 c-102 -16 -178 -40 -261 -80 -277 -134 -433 -379 -452
-710 -6 -116 12 -250 31 -229 2 2 0 36 -5 74 -11 88 4 254 31 345 55 184 159
325 317 427 86 55 256 128 279 119 7 -3 15 0 18 7 2 7 5 -85 7 -203 1 -148 4
-198 9 -160 5 30 8 124 9 208 l1 152 28 12 c16 7 86 12 172 12 159 0 233 -13
348 -65 34 -15 62 -26 62 -23 0 12 -152 75 -225 94 -92 24 -278 34 -369 20z"/>
<path d="M1569 3393 c-29 -35 -41 -53 -36 -53 2 0 17 16 31 35 28 36 31 49 5
18z"/>
<path d="M3280 3295 c30 -30 57 -55 59 -55 3 0 -19 25 -49 55 -30 30 -57 55
-59 55 -3 0 19 -25 49 -55z"/>
<path d="M1485 3270 c-9 -16 -13 -30 -11 -30 3 0 12 14 21 30 9 17 13 30 11
30 -3 0 -12 -13 -21 -30z"/>
<path d="M1455 3219 c-4 -6 -5 -12 -2 -15 2 -3 7 2 10 11 7 17 1 20 -8 4z"/>
<path d="M3360 3206 c0 -2 8 -10 18 -17 15 -13 16 -12 3 4 -13 16 -21 21 -21
13z"/>
<path d="M3434 3103 c118 -182 170 -435 137 -664 -24 -164 -108 -364 -211
-500 -147 -196 -401 -373 -630 -439 -106 -31 -339 -39 -465 -15 -215 40 -389
133 -568 304 -108 103 -169 183 -233 303 -29 57 -54 99 -54 95 0 -18 95 -192
135 -245 135 -183 354 -350 569 -433 146 -56 242 -73 426 -72 145 0 177 3 265
26 160 42 291 115 441 245 249 215 378 500 378 832 -1 187 -49 369 -131 495
-25 39 -55 85 -67 102 -11 18 -24 33 -28 33 -4 0 12 -30 36 -67z"/>
<path d="M1416 3135 c-9 -26 -7 -32 5 -12 6 10 9 21 6 23 -2 3 -7 -2 -11 -11z"/>
<path d="M1396 3085 c-3 -9 -6 -22 -5 -28 0 -7 5 -1 10 12 5 13 8 26 5 28 -2
2 -6 -3 -10 -12z"/>
<path d="M2805 3078 c-38 -34 -44 -87 -13 -122 l24 -28 -4 39 c-3 28 2 46 19
66 19 26 27 28 71 25 l49 -3 -26 23 c-16 13 -39 22 -60 22 -21 0 -44 -9 -60
-22z"/>
<path d="M2984 3059 c22 -31 20 -87 -3 -126 -14 -21 -36 -37 -72 -51 l-53 -20
42 -7 c37 -6 48 -3 83 20 52 36 67 86 43 145 -9 22 -25 45 -37 51 -19 11 -19
10 -3 -12z"/>
<path d="M1365 2980 c-4 -17 -5 -34 -2 -36 2 -3 7 10 11 27 8 42 0 50 -9 9z"/>
<path d="M1347 2901 c-4 -18 -7 -43 -6 -55 1 -11 5 -1 10 24 5 25 7 49 6 55
-2 5 -7 -5 -10 -24z"/>
<path d="M1333 2785 c0 -22 2 -30 4 -17 2 12 2 30 0 40 -3 9 -5 -1 -4 -23z"/>
<path d="M2210 2645 c-80 -53 -232 -148 -338 -213 -159 -96 -188 -118 -166
-120 31 -4 82 21 225 111 57 35 150 88 205 117 56 29 117 67 135 83 19 16 51
41 72 55 l39 26 336 3 c440 4 531 8 545 22 8 8 -102 11 -448 11 l-460 0 -145
-95z"/>
<path d="M1323 2650 c0 -41 2 -58 4 -37 2 20 2 54 0 75 -2 20 -4 3 -4 -38z"/>
<path d="M2430 2278 c0 -216 -3 -451 -6 -523 -4 -90 -2 -125 5 -114 26 40 34
159 36 563 3 319 6 421 16 426 6 5 195 10 418 13 223 3 424 10 446 15 28 7
-107 10 -437 11 l-478 1 0 -392z"/>
<path d="M2019 2394 c-151 -114 -278 -211 -284 -216 -7 -7 3 -8 30 -3 23 4 66
26 100 50 196 143 394 291 417 312 30 28 43 63 24 63 -7 0 -136 -93 -287 -206z"/>
<path d="M2536 2548 c-3 -29 -7 -145 -9 -258 -2 -113 -3 -191 -1 -175 2 17 9
59 14 95 6 36 14 127 18 202 5 76 12 141 16 145 4 4 146 11 314 15 461 10 474
25 25 27 l-372 1 -5 -52z"/>
<path d="M1333 2510 c0 -25 2 -35 4 -22 2 12 2 32 0 45 -2 12 -4 2 -4 -23z"/>
<path d="M1342 2435 c0 -16 2 -22 5 -12 2 9 2 23 0 30 -3 6 -5 -1 -5 -18z"/>
<path d="M1351 2390 c-1 -21 38 -160 50 -179 7 -12 8 -9 3 9 -4 14 -18 61 -30
105 -12 44 -23 73 -23 65z"/>
<path d="M1445 1662 c28 -30 82 -81 120 -115 80 -69 51 -39 -80 83 -49 47 -67
61 -40 32z"/>
<path d="M1630 1547 c0 -2 15 -16 33 -33 l32 -29 -29 33 c-28 30 -36 37 -36
29z"/>
<path d="M1640 1486 c0 -2 8 -10 18 -17 15 -13 16 -12 3 4 -13 16 -21 21 -21
13z"/>
<path d="M3410 1434 c-65 -51 -221 -137 -325 -178 -346 -136 -684 -140 -1040
-11 -16 6 -17 5 -5 -4 31 -23 205 -72 323 -91 302 -49 621 -7 872 115 181 88
235 130 235 180 0 32 -6 31 -60 -11z"/>
<path d="M1680 1456 c0 -2 8 -10 18 -17 15 -13 16 -12 3 4 -13 16 -21 21 -21
13z"/>
<path d="M1720 1426 c0 -2 8 -10 18 -17 15 -13 16 -12 3 4 -13 16 -21 21 -21
13z"/>
<path d="M1820 1356 c0 -3 9 -10 20 -16 11 -6 20 -8 20 -6 0 3 -9 10 -20 16
-11 6 -20 8 -20 6z"/>
<path d="M1890 1315 c0 -7 121 -67 126 -63 2 2 -26 18 -61 36 -36 17 -65 30
-65 27z"/>
</g>
</svg>