<svg width="25" height="25" viewBox="0 0 25 25" fill="none" xmlns="http://www.w3.org/2000/svg">
  <path fill-rule="evenodd" clip-rule="evenodd"
    d="M10.7245 2.28563C10.4442 2.16954 10.1217 2.23371 9.90718 2.44821L2.90709 9.44821C2.76646 9.58886 2.6875 9.77963 2.6875 9.97854C2.6875 10.1775 2.76646 10.3682 2.90709 10.5089L9.90718 17.5089C10.1217 17.7234 10.4442 17.7875 10.7245 17.6715C11.0048 17.5554 11.1875 17.2819 11.1875 16.9785V13.1805C16.0092 13.5129 19.9576 17.0253 20.9478 21.636C21.022 21.9817 21.3276 22.2285 21.6811 22.2285C22.0346 22.2285 22.3401 21.9817 22.4144 21.636C22.5934 20.8024 22.6875 19.9379 22.6875 19.0523C22.6875 12.5386 17.6037 7.21238 11.1875 6.82486V2.97854C11.1875 2.67519 11.0048 2.40171 10.7245 2.28563ZM9.6875 4.7892V7.55227C9.6875 7.96649 10.0233 8.30227 10.4375 8.30227C15.9923 8.30227 20.5631 12.5155 21.1286 17.9206C19.0314 14.1816 15.0301 11.6548 10.4375 11.6548C10.0233 11.6548 9.6875 11.9906 9.6875 12.4048V15.1679L4.49811 9.97854L9.6875 4.7892Z"
    fill="#323544" />
</svg>
